<svg width="30" height="20" viewBox="0 0 30 20" fill="none" xmlns="http://www.w3.org/2000/svg">
<path fill-rule="evenodd" clip-rule="evenodd" d="M8.5376 0.0397791C7.90757 0.220893 7.4513 0.885516 7.52022 1.5219C7.57372 2.01576 7.87765 2.43999 8.35375 2.68536L8.5884 2.80625H18.7662H28.9441L29.1787 2.68536C29.7179 2.40751 29.9948 1.97578 29.9979 1.40833C30.001 0.836365 29.7208 0.384504 29.1925 0.109227C29.0134 0.0159585 28.4362 0.00991967 18.8542 0.000917115C13.2726 -0.00428312 8.63005 0.0131628 8.5376 0.0397791ZM1.16767 8.59875C0.821795 8.66361 0.479327 8.89695 0.247084 9.22596C-0.0823614 9.6927 -0.0823614 10.2903 0.247084 10.7571C0.492115 11.1042 0.826664 11.3199 1.22885 11.39C1.44426 11.4276 6.16877 11.4418 15.2197 11.432C27.5956 11.4188 28.9048 11.4089 29.0907 11.328C29.3943 11.1958 29.6593 10.9633 29.8399 10.6706C29.9758 10.4501 30 10.3476 30 9.99152C30 9.63544 29.9758 9.53294 29.8399 9.31241C29.6593 9.01974 29.3943 8.78719 29.0907 8.655C28.9047 8.57403 27.5996 8.56486 15.1585 8.55742C7.38865 8.55278 1.31708 8.57073 1.16767 8.59875ZM14.5358 17.226C13.2347 17.6692 13.1652 19.3405 14.4253 19.8842C14.6861 19.9968 14.7735 19.9981 21.7329 19.9993C29.5792 20.0007 29.1046 20.024 29.5454 19.6161C29.8845 19.3026 30.0004 19.0356 29.9977 18.5747C29.996 18.2845 29.9625 18.1236 29.8682 17.9525C29.6915 17.6319 29.2629 17.2871 28.947 17.2113C28.5438 17.1145 14.822 17.1285 14.5358 17.226Z" fill="black"/>
</svg>
