<svg width="30" height="30" viewBox="0 0 30 30" fill="none" xmlns="http://www.w3.org/2000/svg">
<g clip-path="url(#clip0_77_1145)">
<path d="M6.51472 8.40035L13.1144 15L6.51472 21.5997C6.26467 21.8497 6.12419 22.1889 6.12419 22.5425C6.12419 22.8961 6.26467 23.2352 6.51472 23.4853C6.76477 23.7353 7.10391 23.8758 7.45753 23.8758C7.81115 23.8758 8.15029 23.7353 8.40034 23.4853L15 16.8856L21.5997 23.4853C21.8497 23.7353 22.1889 23.8758 22.5425 23.8758C22.8961 23.8758 23.2352 23.7353 23.4853 23.4853C23.7353 23.2352 23.8758 22.8961 23.8758 22.5425C23.8758 22.1889 23.7353 21.8497 23.4853 21.5997L16.8856 15L23.4853 8.40035C23.7353 8.1503 23.8758 7.81116 23.8758 7.45754C23.8758 7.10392 23.7353 6.76478 23.4853 6.51473C23.2352 6.26468 22.8961 6.12421 22.5425 6.12421C22.1888 6.12421 21.8497 6.26468 21.5997 6.51473L15 13.1144L8.40034 6.51473C8.15029 6.26468 7.81115 6.12421 7.45753 6.12421C7.10391 6.12421 6.76477 6.26468 6.51472 6.51473C6.26467 6.76478 6.12419 7.10392 6.12419 7.45754C6.12419 7.81116 6.26467 8.1503 6.51472 8.40035Z" fill="#15141A"/>
</g>
<defs>
<clipPath id="clip0_77_1145">
<rect width="30" height="30" fill="white"/>
</clipPath>
</defs>
</svg>
