<svg width="1840" height="332" viewBox="0 0 1840 332" fill="none" xmlns="http://www.w3.org/2000/svg">
<path d="M233.82 4.57931H306.604V327.421H233.82V202.406H72.7843V327.421H0V4.57931H72.7843V138.295H233.82V4.57931Z" fill="white"/>
<path d="M571.439 4.57931H649.227L530.042 223.47V327.421H457.258V223.47L338.529 4.57931H416.317L484.552 139.211V180.425H502.748V139.211L571.439 4.57931Z" fill="white"/>
<path d="M791.668 4.57931C814.11 4.57931 833.064 5.9531 848.531 8.70069C864.301 11.4483 879.009 16.6382 892.656 24.2703C906.606 31.9025 917.069 43.5034 924.044 59.0731C931.02 74.6428 934.507 94.1811 934.507 117.688C934.507 136.921 932.081 153.407 927.229 167.145C922.376 180.883 915.856 191.873 907.668 200.116C899.783 208.359 889.472 214.922 876.735 219.807C863.997 224.386 851.108 227.439 838.068 228.966C825.027 230.492 809.561 231.255 791.668 231.255H749.362V327.421H676.578V4.57931H791.668ZM796.217 167.145C820.175 167.145 837.006 164.245 846.711 158.444C856.719 152.338 861.723 138.753 861.723 117.688C861.723 96.9287 856.719 83.6487 846.711 77.8483C837.006 71.7425 820.175 68.6897 796.217 68.6897H749.362V167.145H796.217Z" fill="white"/>
<path d="M971.109 327.421V4.57931H1199.92V68.6897H1043.89V133.716H1177.18V197.826H1043.89V263.31H1199.92V327.421H971.109Z" fill="white"/>
<path d="M1240.76 327.421V4.57931H1364.95C1460.18 4.57931 1507.79 34.6501 1507.79 94.7917C1507.79 136.616 1480.65 160.734 1426.36 167.145V185.462H1473.22C1499 185.462 1511.88 198.437 1511.88 224.386V327.421H1439.1V213.854H1313.55V327.421H1240.76ZM1313.55 149.743H1364.95C1376.17 149.743 1384.21 149.743 1389.06 149.743C1394.22 149.438 1400.43 148.675 1407.71 147.454C1414.99 145.927 1420.15 143.79 1423.18 141.043C1426.21 138.295 1428.94 134.326 1431.37 129.137C1433.79 123.947 1435.01 117.383 1435.01 109.446C1435.01 101.508 1433.79 94.9444 1431.37 89.7545C1428.94 84.2593 1426.21 80.1379 1423.18 77.3904C1420.15 74.6428 1414.99 72.6584 1407.71 71.4372C1400.43 69.9108 1394.22 69.1476 1389.06 69.1476C1384.21 68.8423 1376.17 68.6897 1364.95 68.6897H1313.55V149.743Z" fill="white"/>
<path d="M1840 238.582C1840 267.89 1828.93 290.786 1806.79 307.272C1784.65 323.757 1749.93 332 1702.62 332C1646.82 332 1606.33 321.162 1581.16 299.487C1556.29 277.506 1543.86 245.298 1543.86 202.863H1616.64C1616.64 227.286 1623.16 244.23 1636.2 253.694C1649.55 263.158 1672.44 267.89 1704.89 267.89C1746.44 267.89 1767.22 258.426 1767.22 239.498C1767.22 232.782 1763.58 226.676 1756.3 221.181C1749.02 215.38 1741.29 210.954 1733.1 207.901C1724.91 204.543 1712.17 199.963 1694.89 194.163C1693.07 193.552 1691.55 193.094 1690.34 192.789C1689.12 192.484 1687.61 192.026 1685.79 191.415C1684.27 190.805 1682.76 190.194 1681.24 189.583C1666.08 184.394 1655.01 180.577 1648.03 178.135C1641.06 175.388 1631.65 171.571 1619.83 166.687C1608 161.497 1599.21 156.765 1593.44 152.491C1587.98 147.912 1582.07 142.264 1575.7 135.548C1569.33 128.831 1564.78 121.352 1562.05 113.109C1559.63 104.866 1558.42 95.5549 1558.42 85.1752C1558.42 57.6993 1569.03 36.6345 1590.26 21.9807C1611.79 7.32689 1643.18 0 1684.42 0C1731.43 0 1766.91 10.6851 1790.87 32.0552C1814.83 53.12 1826.81 80.5959 1826.81 114.483H1754.02C1754.02 80.9011 1730.82 64.1103 1684.42 64.1103C1648.94 64.1103 1631.2 72.0478 1631.2 87.9228C1631.2 95.2497 1634.69 101.203 1641.66 105.782C1648.64 110.361 1664.86 116.925 1690.34 125.473C1732.79 140.127 1761.3 150.965 1775.86 157.986C1818.62 179.662 1840 206.527 1840 238.582Z" fill="white"/>
</svg>
