<svg width="102" height="60" viewBox="0 0 102 60" fill="none" xmlns="http://www.w3.org/2000/svg">
<path fill-rule="evenodd" clip-rule="evenodd" d="M30.432 0.0800888C28.8248 0.300035 27.2791 0.876289 26.0061 1.73005C24.2303 2.92104 22.6069 4.92997 21.3641 7.47429C19.7554 10.768 19.2256 14.2391 19.9169 16.9561C20.2149 18.1273 20.9275 19.298 21.978 20.3422C22.8459 21.2049 23.5573 21.7097 24.8496 22.3797C25.8737 22.9107 26.2504 23.0713 27.5873 23.547C29.4153 24.1977 30.5868 24.4707 31.5731 24.4761L32.2264 24.4797L32.1563 25.0696C31.839 27.7405 31.5125 28.8232 30.3667 31.004C29.9999 31.7022 29.5377 32.7105 29.5377 32.8126C29.5377 32.8403 38.8567 32.8613 51.1418 32.8613C71.6921 32.8613 72.7445 32.8565 72.7169 32.7639C72.6477 32.5319 72.2384 31.6326 72.0343 31.2641C71.912 31.0433 71.8119 30.8518 71.8119 30.8385C71.8119 30.8252 71.7239 30.6554 71.6164 30.4614C71.4064 30.0823 70.9963 29.133 70.8274 28.6347C70.6493 28.1094 70.3616 26.9075 70.2751 26.3268C70.1665 25.5989 70.0503 24.4728 70.0807 24.4439C70.0939 24.4314 70.251 24.443 70.4299 24.4696C71.576 24.6403 74.8467 23.6901 77.2588 22.4856C79.577 21.3279 81.1847 19.805 82 17.9941C82.528 16.8214 82.7911 15.0695 82.6551 13.6314C82.5856 12.8958 82.3439 11.5003 82.1647 10.7993C81.7423 9.1476 80.7808 7.00314 79.7663 5.45017C78.1458 2.96959 76.2677 1.40171 73.9404 0.58644C73.1316 0.303096 72.6734 0.194707 71.7956 0.0788669C70.9489 -0.032858 70.4699 -0.0272961 69.5898 0.104616C67.6381 0.397192 65.9179 1.34994 64.2856 3.04255C62.8629 4.51789 62.0563 6.11996 62.0563 7.47045C62.0563 7.71948 62.0337 7.89138 62.001 7.89138C61.9706 7.89138 61.8548 7.83271 61.7436 7.76102C61.1838 7.40004 59.2297 6.56458 58.1466 6.22312C56.5766 5.72823 54.976 5.42637 53.3955 5.32716C52.2568 5.25569 48.7856 5.29429 47.992 5.38722C47.138 5.48726 45.5726 5.78034 45.0112 5.94534C43.4499 6.40403 41.9219 7.00698 40.7628 7.6216C40.4831 7.76998 40.2453 7.89138 40.2344 7.89138C40.2236 7.89138 40.2147 7.68489 40.2147 7.43247C40.2147 6.52599 39.7456 5.28205 39.0293 4.28893C38.6045 3.7 37.2502 2.30246 36.6918 1.87675C34.7293 0.380618 32.6328 -0.221107 30.432 0.0800888ZM46.7814 17.8248C47.1546 18.0176 47.2731 18.5521 47.0445 19.0118C46.9855 19.1306 46.4588 19.8972 45.8741 20.7152C45.2894 21.5333 44.7984 22.2362 44.7831 22.2773C44.7678 22.3183 44.8874 22.508 45.0492 22.6988C45.4716 23.1974 46.4303 24.4234 46.7668 24.8954C47.4811 25.8972 47.5912 26.4642 47.162 26.9296C46.5373 27.6072 46.0714 27.289 44.4032 25.0447C43.9625 24.4519 43.5898 23.967 43.5749 23.9672C43.56 23.9674 43.2308 24.4204 42.8433 24.974C41.6823 26.6326 41.4023 26.9604 40.9355 27.208C40.5677 27.4031 40.1199 27.2656 39.8922 26.8875C39.7444 26.642 39.7515 26.5304 39.9425 26.0981C40.1392 25.653 40.5354 25.049 41.5575 23.6361C41.9864 23.0433 42.3477 22.5303 42.3603 22.4961C42.3874 22.4228 41.618 21.5224 40.6738 20.5224C40.3044 20.1311 39.9767 19.7426 39.9458 19.659C39.7639 19.1681 40.0508 18.688 40.602 18.5609C41.0927 18.4477 41.3547 18.6273 42.6473 19.963C43.1244 20.456 43.54 20.8433 43.5709 20.8238C43.6017 20.8043 44.0591 20.199 44.5872 19.4788C45.1154 18.7587 45.6423 18.0861 45.7583 17.9843C46.0901 17.6929 46.4249 17.6408 46.7814 17.8248ZM56.2572 17.8217C56.4852 17.9412 56.8015 18.3227 57.7415 19.6116C58.2377 20.2922 58.6594 20.849 58.6786 20.849C58.6977 20.849 59.1921 20.3648 59.7771 19.773C60.6976 18.8419 60.878 18.6843 61.1161 18.6032C61.7013 18.4037 62.3273 18.7879 62.3273 19.3465C62.3273 19.6285 62.2001 19.8561 61.8292 20.2373C61.3684 20.7109 60.5387 21.6197 60.141 22.0863L59.8245 22.4577L60.7132 23.6971C61.8114 25.2286 61.9906 25.4998 62.2386 26.0057C62.4728 26.4831 62.4859 26.6936 62.2974 26.9473C61.982 27.3717 61.5838 27.4134 61.0887 27.0741C60.7089 26.8139 60.4295 26.471 59.4006 25.0025L58.669 23.9582L58.5335 24.1171C58.459 24.2044 58.0819 24.6999 57.6956 25.218C56.8648 26.332 56.0977 27.1561 55.8371 27.2141C55.5879 27.2695 55.3863 27.2106 55.1544 27.0145C54.9301 26.8248 54.7938 26.5437 54.7938 26.2709C54.7938 25.8369 55.3757 24.9278 56.7179 23.2648C57.1054 22.7846 57.4211 22.3512 57.4196 22.3017C57.418 22.2521 56.9277 21.5233 56.3299 20.6822C55.2004 19.0928 55.1029 18.9382 55.04 18.6386C54.9056 17.9986 55.6463 17.5014 56.2572 17.8217ZM0 46.9033V60H3.30606H6.61211V55.0505V50.101H9.02391H11.4357V55.0505V60H14.7418H18.0478V50.2649V40.5299L16.5709 37.1688L15.094 33.8077L13.2649 33.8072L11.4357 33.8067V38.8118V43.8169H9.02391H6.61211V38.8118V33.8067H3.30606H0V46.9033ZM16.0081 33.9869C16.0499 34.0866 16.5113 35.1316 17.0336 36.3092C17.5558 37.4868 18.9732 40.6882 20.1834 43.4235L22.3836 48.3966V54.1427V59.8888H25.6626H28.9416V54.0504V48.2119L31.7734 41.7764L34.6052 35.3409L34.6189 47.6704L34.6325 60H37.9385H41.2444V56.0793V52.1587H46.1222H51V42.9826V33.8064L40.0715 33.8205L29.143 33.8345L27.3758 37.8539C25.6854 41.6988 25.6056 41.8666 25.5393 41.7189C25.5012 41.634 24.7057 39.8253 23.7715 37.6995L22.0731 33.8345L19.0027 33.8201L15.9323 33.8057L16.0081 33.9869ZM51.8672 46.9033V60H59.7529H67.6387V56.7467V53.4934H63.059H58.4793V51.7416V49.9898H62.6525H66.8257V46.7365V43.4832H62.6525H58.4793V41.8982V40.3133H63.059H67.6387V37.06V33.8067H59.7529H51.8672V46.9033ZM68.4516 46.9033V60H71.7577H75.0638V49.7952V39.5903H77.6078H80.1519L80.026 39.9657C79.8797 40.4022 76.302 50.7085 76.1449 51.1459C76.0869 51.3076 76.0393 51.464 76.0393 51.4934C76.0393 51.5267 76.7668 51.5469 77.9633 51.5469H79.8874V55.7735V60H90.9166H101.946V51.7071V43.4141L98.0165 43.4365C94.0952 43.4589 94.0871 43.4587 94.0875 43.3459C94.0876 43.2838 94.1852 42.4988 94.3043 41.6017C94.4233 40.7045 94.5207 39.96 94.5207 39.9472C94.5207 39.9345 96.2036 39.924 98.2604 39.924H102V36.8653V33.8067H95.338H88.676L88.6475 33.9596C88.6318 34.0437 88.6028 34.2251 88.583 34.3628C88.5633 34.5004 87.8887 36.5025 87.0839 38.8118C86.2792 41.1211 85.5013 43.3574 85.3551 43.7814L85.0895 44.5524L86.1874 44.5322L87.2853 44.512L87.2994 47.1119L87.3135 49.7117H91.3236H95.3337V51.7138V53.7158H90.9166H86.4995V49.4337V45.1515H85.3342C84.6933 45.1515 84.169 45.1403 84.169 45.1265C84.169 45.1026 84.8225 43.2196 87.0645 36.7843C87.6182 35.1951 88.0712 33.8751 88.0712 33.8508C88.0712 33.8265 83.6568 33.8067 78.2614 33.8067H68.4516V46.9033ZM44.3879 42.9827V46.1526H42.8162H41.2444V42.9827V39.8128H42.8162H44.3879V42.9827Z" fill="black"/>
</svg>
