<svg width="24" height="24" viewBox="0 0 24 24" fill="none" xmlns="http://www.w3.org/2000/svg">
<path d="M12.7502 21C12.5513 21 12.3605 20.921 12.2199 20.7803C12.0792 20.6397 12.0002 20.4489 12.0002 20.25L12.0002 5.5605L8.7812 8.7795C8.63975 8.91612 8.4503 8.99171 8.25365 8.99001C8.057 8.9883 7.86889 8.90942 7.72983 8.77037C7.59078 8.63131 7.5119 8.4432 7.51019 8.24655C7.50849 8.0499 7.58408 7.86045 7.7207 7.719L12.2207 3.219C12.2897 3.1496 12.3717 3.09453 12.4621 3.05694C12.5524 3.01936 12.6493 3.00001 12.7472 3L12.7502 3C12.8477 3 12.9452 3.0195 13.0367 3.0585C13.1276 3.09588 13.2102 3.15095 13.2797 3.2205L17.7797 7.7205C17.9163 7.86195 17.9919 8.0514 17.9902 8.24805C17.9885 8.4447 17.9096 8.63281 17.7706 8.77186C17.6315 8.91092 17.4434 8.9898 17.2468 8.99151C17.0501 8.99321 16.8607 8.91762 16.7192 8.781L13.5002 5.5605L13.5002 20.25C13.5002 20.4489 13.4212 20.6397 13.2805 20.7803C13.1399 20.921 12.9491 21 12.7502 21Z" fill="#15141A"/>
</svg>
