<svg width="24" height="24" viewBox="0 0 24 24" fill="none" xmlns="http://www.w3.org/2000/svg">
<path d="M12.7502 3C12.5513 3 12.3605 3.07902 12.2199 3.21967C12.0792 3.36032 12.0002 3.55109 12.0002 3.75L12.0002 18.4395L8.7812 15.2205C8.63975 15.0839 8.4503 15.0083 8.25365 15.01C8.057 15.0117 7.86889 15.0906 7.72983 15.2296C7.59078 15.3687 7.5119 15.5568 7.51019 15.7534C7.50849 15.9501 7.58408 16.1395 7.7207 16.281L12.2207 20.781C12.2897 20.8504 12.3717 20.9055 12.4621 20.9431C12.5524 20.9806 12.6493 21 12.7472 21L12.7502 21C12.8477 21 12.9452 20.9805 13.0367 20.9415C13.1276 20.9041 13.2102 20.8491 13.2797 20.7795L17.7797 16.2795C17.9163 16.138 17.9919 15.9486 17.9902 15.7519C17.9885 15.5553 17.9096 15.3672 17.7706 15.2281C17.6315 15.0891 17.4434 15.0102 17.2468 15.0085C17.0501 15.0068 16.8607 15.0824 16.7192 15.219L13.5002 18.4395L13.5002 3.75C13.5002 3.55109 13.4212 3.36032 13.2805 3.21967C13.1399 3.07902 12.9491 3 12.7502 3Z" fill="#15141A"/>
</svg>
