<svg width="22" height="24" viewBox="0 0 22 24" fill="none" xmlns="http://www.w3.org/2000/svg">
<g clip-path="url(#clip0)">
<path d="M10.3629 18.443C9.2355 18.443 8.31836 19.3592 8.31836 20.4855C8.31836 21.6118 9.2355 22.528 10.3629 22.528C11.4902 22.528 12.4074 21.6118 12.4074 20.4855C12.4074 19.3592 11.4902 18.443 10.3629 18.443Z" fill="white"/>
<path d="M16.4965 18.443C15.3691 18.443 14.4519 19.3592 14.4519 20.4855C14.4519 21.6118 15.369 22.528 16.4965 22.528C17.6238 22.528 18.541 21.6118 18.541 20.4855C18.541 19.3592 17.6238 18.443 16.4965 18.443Z" fill="white"/>
<path d="M20.4754 10.2441L7.41313 6.89052C7.20589 6.83732 6.98594 6.89584 6.83264 7.04493C6.67934 7.19402 6.61486 7.41213 6.66254 7.62047L8.67032 16.3999H7.88415L5.48173 5.89479C5.4282 5.66073 5.24305 5.47942 5.00788 5.43084L0.737599 4.54866C0.405973 4.48025 0.0813804 4.69353 0.0128063 5.02524C-0.055727 5.35699 0.157642 5.68146 0.48939 5.75003L4.37375 6.55248L6.79731 17.1499C6.8611 17.4288 7.10915 17.6266 7.39522 17.6266H19.4641C19.7689 17.6266 20.0295 17.3997 20.0716 17.0975L20.9303 10.9218C20.9732 10.6132 20.7775 10.3216 20.4754 10.2441ZM12.3353 14.1537C12.3353 14.4922 12.0606 14.7665 11.7219 14.7665C11.3832 14.7665 11.1085 14.4922 11.1085 14.1537V11.4576C11.1085 11.1192 11.3832 10.8449 11.7219 10.8449C12.0606 10.8449 12.3353 11.1192 12.3353 11.4576V14.1537ZM14.9603 14.1537C14.9603 14.4921 14.6856 14.7665 14.3469 14.7665C14.0081 14.7665 13.7335 14.4921 13.7335 14.1537V12.2746C13.7335 11.9362 14.0081 11.6618 14.3469 11.6618C14.6856 11.6618 14.9603 11.9362 14.9603 12.2746V14.1537ZM17.5852 14.1537C17.5852 14.4921 17.3106 14.7665 16.9718 14.7665C16.6331 14.7665 16.3585 14.4921 16.3585 14.1537V12.9282C16.3585 12.5898 16.6331 12.3154 16.9718 12.3154C17.3106 12.3154 17.5852 12.5898 17.5852 12.9282V14.1537Z" fill="white"/>
</g>
<path fill-rule="evenodd" clip-rule="evenodd" d="M16.2682 4.56766C15.7853 4.2383 15.2022 4.04548 14.5749 4.04548C13.9476 4.04548 13.3646 4.2383 12.8817 4.56768C12.6022 3.72467 12.3895 2.81606 12.3895 2.18542C12.3895 0.980373 13.3699 0 14.5749 0C15.78 0 16.7603 0.980373 16.7603 2.18539C16.7603 2.81603 16.5476 3.72464 16.2682 4.56766ZM11.5463 6.84201C11.5541 6.8439 11.562 6.84579 11.5698 6.84768C11.57 6.84412 11.5703 6.84056 11.5705 6.837C11.5625 6.83866 11.5544 6.84033 11.5463 6.84201ZM16.518 8.05918C15.1848 7.72973 13.7524 7.37771 12.3895 7.04644C12.3958 5.84479 13.3718 4.87258 14.5749 4.87258C15.7819 4.87258 16.7603 5.85103 16.7603 7.058C16.7603 7.41883 16.6729 7.75923 16.518 8.05918ZM20.9537 9.16157C20.0879 8.94522 18.7992 8.62392 17.3364 8.26164C17.4978 7.89281 17.5874 7.48567 17.5874 7.058C17.5874 6.98367 17.5846 6.91 17.5793 6.837C18.4488 7.01651 19.3415 7.2865 19.8874 7.60169C20.4831 7.94561 20.8557 8.52957 20.9537 9.16157ZM9.8693 6.4394C9.50814 6.35343 9.16315 6.27187 8.83889 6.1959C8.13263 5.51557 7.95065 4.41563 8.46253 3.529C9.06505 2.48538 10.4043 2.12655 11.4478 2.72908C11.5006 2.75957 11.5548 2.79326 11.6099 2.82954C11.7082 3.56741 11.9479 4.42796 12.2193 5.18239C12.0338 5.41487 11.8818 5.67516 11.7711 5.9561C11.1427 6.06944 10.4662 6.2338 9.8693 6.4394ZM19.9926 6.51432C19.9256 6.55302 19.8528 6.59096 19.776 6.62824C19.0796 6.33332 18.1891 6.10228 17.3787 5.95613C17.268 5.67521 17.116 5.41489 16.9305 5.18245C17.1921 4.45501 17.4243 3.62894 17.5287 2.90925C17.6244 2.84154 17.7177 2.78077 17.8072 2.7291C18.8508 2.12658 20.19 2.48541 20.7925 3.529C21.395 4.57259 21.0362 5.91179 19.9926 6.51432Z" fill="white"/>
<defs>
<clipPath id="clip0">
<rect width="20.9362" height="20.9362" fill="white" transform="translate(0 3.06384)"/>
</clipPath>
</defs>
</svg>
