<svg xmlns="http://www.w3.org/2000/svg" viewBox="0 0 344.96 344.96" width="27" height="27"><defs><style></style></defs><title>check</title><g id="Слой_2" data-name="Слой 2"><g id="Capa_1" data-name="Capa 1"><path class="cls-1" d="M321.85,86.24l-40-23.11-23.1-40H212.5L172.48,0l-40,23.11H86.24l-23.11,40-40,23.1v46.21L0,172.48l23.11,40v46.21l40,23.11,23.11,40h46.21l40,23.1,40-23.11h46.21l23.11-40,40-23.11V212.5l23.11-40-23.11-40V86.24ZM156.91,243.07a16.79,16.79,0,0,1-23.34,0L83.12,192.63a16.19,16.19,0,0,1,0-22.89l13.35-13.35a16.19,16.19,0,0,1,22.89,0l25.87,25.87,80.34-80.35a16.19,16.19,0,0,1,22.89,0l13.35,13.35a16.19,16.19,0,0,1,0,22.89Z"/></g></g></svg>