<svg width="24" height="24" viewBox="0 0 24 24" fill="none" xmlns="http://www.w3.org/2000/svg">
<g clip-path="url(#clip0_73_48)">
<path d="M1.64991 10.3424C8.09234 7.47659 12.3883 5.58723 14.5378 4.67431C20.675 2.068 21.9503 1.61523 22.7816 1.60018C22.9643 1.59704 23.3731 1.64329 23.6379 1.86261C23.8615 2.04788 23.9229 2.29812 23.9524 2.47369C23.9818 2.64935 24.0185 3.04941 23.9893 3.36197C23.6567 6.92985 22.2177 15.5882 21.4856 19.5843C21.1758 21.2752 20.5658 21.8422 19.9753 21.8977C18.692 22.0182 17.7174 21.0317 16.4744 20.1997C14.5293 18.898 13.4306 18.0876 11.5425 16.8173C9.36065 15.3492 10.7751 14.5424 12.0186 13.2237C12.3439 12.8786 17.9984 7.62723 18.1079 7.15093C18.1216 7.0913 18.1343 6.8692 18.0051 6.75197C17.8759 6.63474 17.6852 6.6748 17.5475 6.70665C17.3525 6.75188 14.2452 8.84884 8.22582 12.9975C7.34382 13.6159 6.54499 13.9171 5.82923 13.9013C5.04019 13.884 3.52237 13.4459 2.394 13.0714C1.01003 12.6119 -0.0899649 12.3692 0.00581367 11.5891C0.055706 11.1827 0.603719 10.7672 1.64991 10.3424Z" fill="#15141A"/>
</g>
<defs>
<clipPath id="clip0_73_48">
<rect width="24" height="24" fill="white"/>
</clipPath>
</defs>
</svg>
