<svg width="24" height="24" viewBox="0 0 24 24" fill="none" xmlns="http://www.w3.org/2000/svg">
<g clip-path="url(#clip0_73_53)">
<path d="M24 4.70751C23.1172 5.09923 22.1691 5.36404 21.1722 5.48307C22.1896 4.87382 22.969 3.90838 23.337 2.75934C22.3706 3.33337 21.3129 3.73748 20.2098 3.95413C19.3122 2.99733 18.0322 2.39996 16.616 2.39996C13.8978 2.39996 11.6934 4.60354 11.6934 7.32334C11.6934 7.7087 11.7368 8.08466 11.8202 8.44562C7.72832 8.23998 4.1006 6.27992 1.67237 3.3016C1.24837 4.02899 1.00567 4.87471 1.00567 5.77705C1.00567 7.48494 1.87497 8.99183 3.19584 9.87454C2.41391 9.8503 1.64913 9.63924 0.965445 9.25899V9.32121C0.965445 11.7069 2.66228 13.6961 4.91473 14.1485C4.50096 14.2619 4.06673 14.3211 3.61749 14.3211C3.29987 14.3211 2.99172 14.291 2.69069 14.2344C3.31722 16.1898 5.1355 17.6131 7.28932 17.6533C5.60431 18.9742 3.48112 19.7616 1.17509 19.7616C0.77791 19.7616 0.385365 19.7379 0 19.6914C2.17918 21.0887 4.7666 21.9045 7.54708 21.9045C16.6026 21.9045 21.5552 14.4023 21.5552 7.89636C21.5552 7.68277 21.5505 7.47077 21.5402 7.25953C22.5051 6.56161 23.338 5.69745 24 4.70751Z" fill="#15141A"/>
</g>
<defs>
<clipPath id="clip0_73_53">
<rect width="24" height="24" fill="white"/>
</clipPath>
</defs>
</svg>
