<svg width="16" height="16" viewBox="0 0 16 16" fill="none" xmlns="http://www.w3.org/2000/svg">
<path d="M7.99996 1.33528C6.92895 1.3482 4.62635 1.52406 3.33847 2.70462C2.38048 3.65307 2.046 5.05533 2.00679 6.78929C1.97426 8.517 1.93506 11.7616 5.0651 12.645V13.9906C5.0651 13.9906 5.0455 14.529 5.40167 14.6394C5.84042 14.7782 6.09024 14.364 6.5073 13.9189L7.28512 13.0401C9.42672 13.218 11.067 12.8079 11.2559 12.7471C11.6905 12.6083 14.1383 12.2958 14.5382 9.05082C14.9486 5.69957 14.3384 3.58806 13.237 2.63294H13.2303C12.8979 2.32707 11.5621 1.35445 8.57759 1.34362C8.57759 1.34362 8.35613 1.32862 7.99996 1.33487V1.33528ZM8.03666 2.27748C8.3407 2.2754 8.52545 2.28832 8.52545 2.28832C11.0516 2.29499 12.2573 3.05466 12.5417 3.31053C13.4693 4.10479 13.9472 6.00836 13.5973 8.80621C13.2649 11.519 11.2797 11.6907 10.9123 11.8078C10.7559 11.8578 9.3112 12.2137 7.49114 12.0966C7.49114 12.0966 6.1357 13.731 5.71196 14.1519C5.64482 14.2256 5.56641 14.2473 5.51636 14.2365C5.44463 14.219 5.42294 14.1302 5.42711 14.0085L5.44004 11.7753C2.78545 11.0419 2.94184 8.27447 2.9702 6.82888C3.00274 5.38328 3.27424 4.20064 4.08251 3.39971C5.17062 2.41667 7.1258 2.28415 8.03582 2.27748H8.03666ZM8.23685 3.72266C8.215 3.72244 8.19332 3.72654 8.17307 3.73473C8.15282 3.74292 8.13438 3.75504 8.11884 3.77038C8.10329 3.78572 8.09094 3.80398 8.08249 3.82411C8.07404 3.84425 8.06966 3.86585 8.06961 3.88768C8.06961 3.98103 8.14551 4.05479 8.23685 4.05479C8.65036 4.04693 9.06135 4.12095 9.44609 4.27257C9.83084 4.4242 10.1817 4.65043 10.4785 4.93823C11.0845 5.52622 11.3798 6.31632 11.3911 7.34936C11.3911 7.44062 11.4649 7.51646 11.5583 7.51646V7.5098C11.6023 7.50991 11.6446 7.49262 11.676 7.46171C11.7073 7.4308 11.7251 7.38877 11.7256 7.34478C11.7458 6.85853 11.6669 6.37324 11.4936 5.91842C11.3203 5.46359 11.0563 5.04873 10.7175 4.69903C10.0573 4.05437 9.22069 3.72224 8.23685 3.72224V3.72266ZM6.03852 4.10479C5.92047 4.08756 5.80007 4.11123 5.69736 4.17188H5.68861C5.45016 4.31154 5.23535 4.48806 5.05217 4.69487C4.89994 4.87072 4.81737 5.04866 4.79568 5.21993C4.78275 5.32203 4.79151 5.42412 4.82195 5.52163L4.8328 5.5283C5.00421 6.0317 5.22817 6.51592 5.50176 6.97181C5.85419 7.61229 6.2879 8.20462 6.79215 8.73411L6.80716 8.75578L6.83094 8.77328L6.84595 8.79079L6.86347 8.80579C7.39532 9.3111 7.98957 9.74648 8.6318 10.1014C9.36583 10.5006 9.81125 10.6894 10.0786 10.7677V10.7719C10.157 10.7956 10.2283 10.8065 10.3 10.8065C10.5279 10.7898 10.7436 10.6973 10.9127 10.5439C11.1187 10.3608 11.2934 10.1453 11.4299 9.90592V9.90176C11.5579 9.66089 11.5145 9.43295 11.3298 9.27876C10.9598 8.9556 10.5596 8.66856 10.1349 8.42157C9.85046 8.26739 9.56143 8.36073 9.44424 8.517L9.19442 8.83162C9.06638 8.98789 8.83366 8.96623 8.83366 8.96623L8.82699 8.97039C7.0916 8.52742 6.62866 6.77179 6.62866 6.77179C6.62866 6.77179 6.60697 6.53301 6.76754 6.41133L7.08034 6.15963C7.23006 6.03795 7.33433 5.74958 7.17376 5.46496C6.92828 5.03997 6.64163 4.64009 6.31795 4.27106C6.24719 4.18406 6.14791 4.12487 6.03769 4.10396L6.03852 4.10479ZM8.52545 4.59985C8.30399 4.59985 8.30399 4.93406 8.52754 4.93406C8.80292 4.93852 9.07471 4.99717 9.3274 5.10664C9.58008 5.21611 9.8087 5.37426 10.0002 5.57206C10.1749 5.76458 10.3091 5.99018 10.3949 6.23549C10.4807 6.48079 10.5164 6.74082 10.4998 7.00015C10.5006 7.04404 10.5185 7.08588 10.5498 7.11673C10.581 7.14757 10.6231 7.16496 10.6671 7.16517L10.6737 7.17392C10.718 7.17359 10.7603 7.15588 10.7916 7.12462C10.8229 7.09335 10.8406 7.05103 10.841 7.00682C10.856 6.34465 10.65 5.78917 10.2458 5.34411C9.83961 4.89906 9.27283 4.64944 8.54923 4.59985H8.52545ZM8.79946 5.4983C8.57133 5.49163 8.56257 5.83251 8.78862 5.83917C9.3383 5.86751 9.60522 6.14504 9.64026 6.71595C9.64102 6.75928 9.65873 6.8006 9.6896 6.83105C9.72046 6.8615 9.76204 6.87867 9.80541 6.87888H9.81209C9.83439 6.87793 9.85628 6.87254 9.87647 6.86305C9.89667 6.85355 9.91477 6.84012 9.92971 6.82356C9.94466 6.80699 9.95616 6.78762 9.96353 6.76657C9.9709 6.74552 9.974 6.72321 9.97265 6.70095C9.93345 5.95669 9.52723 5.53747 8.80614 5.49871H8.79946V5.4983Z" fill="black"/>
</svg>
