<svg width="16" height="16" viewBox="0 0 16 16" fill="none" xmlns="http://www.w3.org/2000/svg">
<path fill-rule="evenodd" clip-rule="evenodd" d="M12.2687 3.75532C11.7142 3.19725 11.0546 2.75473 10.3279 2.45342C9.60123 2.15211 8.822 1.99799 8.03533 1.99999C4.73667 1.99999 2.05133 4.68466 2.05 7.98466C2.05 9.03932 2.32533 10.0687 2.84867 10.9767L2 14.0773L5.17267 13.2447C6.05026 13.7224 7.03347 13.9729 8.03267 13.9733H8.03533C11.3333 13.9733 14.0187 11.2887 14.02 7.98866C14.0223 7.20231 13.8687 6.42332 13.5681 5.6967C13.2674 4.97007 12.8258 4.31024 12.2687 3.75532ZM8.03533 12.9633H8.03333C7.14234 12.9634 6.26776 12.7237 5.50133 12.2693L5.32 12.1613L3.43733 12.6553L3.93933 10.82L3.82133 10.632C3.32319 9.83894 3.05949 8.92118 3.06067 7.98466C3.062 5.24199 5.29333 3.01066 8.03733 3.01066C8.69083 3.0092 9.33813 3.13738 9.94177 3.38776C10.5454 3.63814 11.0934 4.00575 11.554 4.46932C12.0171 4.93068 12.3841 5.47925 12.6339 6.08332C12.8837 6.68739 13.0113 7.33498 13.0093 7.98866C13.008 10.7313 10.7767 12.9633 8.03533 12.9633ZM10.764 9.23732C10.614 9.16199 9.87933 8.80066 9.742 8.75066C9.60533 8.70066 9.506 8.67599 9.406 8.82532C9.306 8.97466 9.01933 9.31132 8.932 9.41132C8.84467 9.51132 8.75733 9.52332 8.608 9.44866C8.45867 9.37399 7.97667 9.21599 7.40533 8.70666C6.96067 8.30999 6.66067 7.82065 6.57333 7.67066C6.486 7.52066 6.564 7.43999 6.63933 7.36532C6.70667 7.29866 6.78867 7.19066 6.86333 7.10332C6.938 7.01599 6.96267 6.95399 7.01267 6.85399C7.06267 6.75399 7.038 6.66666 7 6.59199C6.96267 6.51665 6.66333 5.78066 6.53867 5.48132C6.418 5.19132 6.29467 5.22999 6.20267 5.22599C6.10738 5.22209 6.01203 5.22031 5.91667 5.22066C5.84084 5.22259 5.76622 5.24017 5.69751 5.27229C5.62879 5.30441 5.56745 5.35038 5.51733 5.40732C5.38 5.55732 4.994 5.91866 4.994 6.65466C4.994 7.39066 5.53 8.10199 5.60467 8.20199C5.67933 8.30199 6.65933 9.81199 8.15933 10.46C8.51667 10.614 8.79533 10.706 9.012 10.7753C9.37 10.8893 9.696 10.8727 9.954 10.8347C10.2413 10.792 10.8387 10.4733 10.9633 10.124C11.088 9.77466 11.088 9.47532 11.0507 9.41266C11.0133 9.34999 10.9127 9.31199 10.764 9.23732Z" fill="black"/>
</svg>
