<?xml version="1.0" standalone="no"?>
<!DOCTYPE svg PUBLIC "-//W3C//DTD SVG 20010904//EN"
 "http://www.w3.org/TR/2001/REC-SVG-20010904/DTD/svg10.dtd">
<svg version="1.0" xmlns="http://www.w3.org/2000/svg"
 width="512.000000pt" height="512.000000pt" viewBox="0 0 512.000000 512.000000"
 preserveAspectRatio="xMidYMid meet">
<metadata>
Created by potrace 1.14, written by Peter Selinger 2001-2017
</metadata>
<g transform="translate(0.000000,512.000000) scale(0.100000,-0.100000)"
fill="#000000" stroke="none">
<path d="M867 3826 c-32 -7 -60 -13 -62 -15 -3 -1 -10 -3 -17 -5 -246 -73
-443 -256 -592 -552 -95 -189 -143 -380 -144 -566 -1 -233 73 -389 253 -534
168 -136 519 -270 717 -273 l38 -1 -6 -38 c-3 -20 -7 -48 -9 -62 -2 -14 -7
-47 -11 -75 -10 -79 -57 -212 -118 -332 -31 -61 -60 -122 -65 -136 l-10 -26
1729 0 1730 -1 -17 42 c-9 23 -38 83 -64 134 -47 92 -93 213 -103 275 -3 19
-8 45 -11 59 -3 14 -8 57 -11 95 l-6 70 51 -1 c28 -1 70 2 93 8 24 5 52 11 63
14 46 9 207 64 292 101 239 104 405 258 469 434 34 95 48 268 30 369 -36 201
-52 252 -136 435 -29 63 -96 177 -127 215 -49 63 -127 150 -155 174 -66 58
-179 125 -262 154 -283 103 -538 46 -756 -168 -127 -124 -192 -238 -204 -355
-2 -22 -5 -43 -5 -48 -1 -4 -31 8 -68 26 -170 85 -373 146 -548 164 -63 7
-362 9 -478 3 -151 -7 -370 -68 -554 -155 -89 -42 -93 -43 -94 -22 -4 124 -61
236 -185 363 -112 114 -199 172 -326 214 -77 26 -236 34 -321 16z m1365 -1423
c29 -26 22 -70 -19 -132 -21 -31 -40 -58 -43 -61 -7 -6 -69 -96 -92 -131 -17
-27 -17 -27 54 -115 100 -124 138 -187 138 -225 0 -37 -33 -79 -61 -79 -27 0
-79 50 -146 138 -32 42 -67 87 -79 100 l-20 23 -40 -56 c-21 -31 -43 -62 -49
-68 -5 -7 -23 -30 -39 -52 -45 -61 -77 -85 -112 -85 -31 0 -46 10 -57 41 -8
25 27 92 108 205 41 58 79 113 84 123 11 19 11 19 -106 148 -37 41 -72 84 -77
94 -13 26 8 67 39 79 40 15 73 -4 165 -95 l85 -84 75 101 c41 56 85 112 98
125 27 27 68 30 94 6z m779 -21 c19 -20 63 -76 99 -125 l64 -87 86 84 c47 46
94 89 106 94 54 28 119 -31 92 -81 -13 -24 -136 -165 -170 -196 -10 -8 -18
-19 -18 -24 0 -5 40 -66 90 -136 112 -159 124 -186 102 -223 -44 -75 -104 -29
-274 212 -15 22 -19 23 -27 9 -6 -9 -47 -62 -91 -117 -114 -143 -138 -156
-183 -102 -31 36 -28 66 10 125 31 49 100 142 130 174 51 57 51 65 -4 144
-131 188 -141 206 -138 233 7 64 76 73 126 16z"/>
</g>
</svg>
